<svg width="40" height="40" viewBox="0 0 40 40" fill="none" xmlns="http://www.w3.org/2000/svg">
<path d="M36.7619 20.0952C36.7619 29.2994 29.2994 36.7619 20.0953 36.7619C10.8911 36.7619 3.42859 29.2994 3.42859 20.0952C3.42859 10.8911 10.8911 3.42857 20.0953 3.42857C29.2994 3.42857 36.7619 10.8911 36.7619 20.0952Z" fill="#F8F9FA"/>
<path d="M28.7274 14.125C28.7274 14.125 26.2262 12.2194 23.2729 12L23.0056 12.5182C25.6772 13.1551 26.9009 14.0674 28.182 15.1875C25.975 14.0908 23.7967 13.0625 20 13.0625C16.2033 13.0625 14.0232 14.0908 11.8182 15.1875C13.0957 14.0674 14.5544 13.0548 16.9929 12.5182L16.7274 12C13.6267 12.2858 11.2729 14.125 11.2729 14.125C11.2729 14.125 8.47897 18.0693 8 25.8125C10.8152 28.9753 15.0908 29 15.0908 29L15.9845 27.8396C14.4665 27.3257 12.7528 26.4067 11.2726 24.7502C13.0381 26.0503 15.7043 27.4064 20 27.4064C24.2957 27.4064 26.9599 26.0521 28.7274 24.7502C27.2454 26.4067 25.5317 27.3257 24.0155 27.8396L24.9092 29C24.9092 29 29.183 28.9753 32 25.8125C31.5192 18.0693 28.7274 14.125 28.7274 14.125ZM16.4545 23.6872C15.3994 23.6872 14.5455 22.7365 14.5455 21.5621C14.5455 20.3888 15.3996 19.4374 16.4545 19.4374C17.5095 19.4374 18.3637 20.3888 18.3637 21.5621C18.3637 22.7367 17.5095 23.6872 16.4545 23.6872ZM23.5455 23.6872C22.4905 23.6872 21.6363 22.7365 21.6363 21.5621C21.6363 20.3888 22.4905 19.4374 23.5455 19.4374C24.6004 19.4374 25.4545 20.3888 25.4545 21.5621C25.4545 22.7367 24.5986 23.6872 23.5455 23.6872Z" fill="#212529"/>
</svg>
