<svg width="40" height="40" viewBox="0 0 40 40" fill="none" xmlns="http://www.w3.org/2000/svg">
<path d="M36.7619 20.0952C36.7619 29.2994 29.2994 36.7619 20.0953 36.7619C10.8911 36.7619 3.42859 29.2994 3.42859 20.0952C3.42859 10.8911 10.8911 3.42857 20.0953 3.42857C29.2994 3.42857 36.7619 10.8911 36.7619 20.0952Z" fill="#F8F9FA"/>
<path d="M10.4024 14.5512C10.961 14.8457 18.7203 19.0758 19.0098 19.2281C19.2992 19.3805 19.5938 19.4516 20.0508 19.4516C20.5078 19.4516 20.8024 19.3805 21.0918 19.2281C21.3813 19.0758 29.1406 14.8457 29.6992 14.5512C29.9074 14.4445 30.2578 14.2516 30.334 14.0332C30.466 13.6473 30.3239 13.5 29.7602 13.5H20.0508H10.3414C9.77776 13.5 9.63557 13.6523 9.7676 14.0332C9.84377 14.2566 10.1942 14.4445 10.4024 14.5512Z" fill="#212529"/>
<path d="M30.141 14.7797C29.7246 14.993 25.9871 17.6539 23.5141 19.2535L27.6883 23.9508C27.7898 24.0523 27.8355 24.1742 27.7797 24.2352C27.7188 24.291 27.5867 24.2605 27.4801 24.1641L22.473 19.9391C21.7164 20.4266 21.1832 20.7617 21.0918 20.8125C20.7008 21.0105 20.4266 21.0359 20.0508 21.0359C19.675 21.0359 19.4008 21.0105 19.0098 20.8125C18.9133 20.7617 18.3852 20.4266 17.6285 19.9391L12.6215 24.1641C12.5199 24.2656 12.3828 24.2961 12.3219 24.2352C12.2609 24.1793 12.3066 24.0523 12.4082 23.9508L16.5773 19.2535C14.1043 17.6539 10.3262 14.993 9.90977 14.7797C9.46289 14.5512 9.4375 14.8203 9.4375 15.0285C9.4375 15.2367 9.4375 25.4387 9.4375 25.4387C9.4375 25.9109 10.1332 26.5 10.6309 26.5H20.0508H29.4707C29.9684 26.5 30.5625 25.9059 30.5625 25.4387C30.5625 25.4387 30.5625 15.2316 30.5625 15.0285C30.5625 14.8152 30.593 14.5512 30.141 14.7797Z" fill="#212529"/>
</svg>
