<svg width="40" height="40" viewBox="0 0 40 40" fill="none" xmlns="http://www.w3.org/2000/svg">
<path d="M20 3.7445C16.0424 3.74466 12.2141 5.15302 9.19991 7.71758C6.18574 10.2821 4.18247 13.8355 3.54852 17.742C2.91457 21.6484 3.69133 25.653 5.7398 29.0391C7.78827 32.4252 10.9748 34.972 14.7292 36.2236C15.5625 36.3695 15.875 35.8695 15.875 35.432C15.875 35.0362 15.8541 33.7236 15.8541 32.3278C11.6666 33.0986 10.5833 31.307 10.25 30.3695C9.88009 29.4578 9.29376 28.6497 8.54163 28.0153C7.9583 27.7028 7.12496 26.932 8.52078 26.9112C9.05376 26.969 9.56494 27.1545 10.011 27.4519C10.4571 27.7492 10.8249 28.1498 11.0833 28.6195C11.3112 29.029 11.6178 29.3895 11.9853 29.6803C12.3528 29.9711 12.7741 30.1866 13.225 30.3143C13.6759 30.4421 14.1476 30.4796 14.6131 30.4247C15.0785 30.3698 15.5286 30.2236 15.9374 29.9945C16.0096 29.1472 16.3872 28.355 17 27.7654C13.2916 27.3487 9.41663 25.9111 9.41663 19.5362C9.39321 17.8798 10.0044 16.2772 11.125 15.057C10.6154 13.6174 10.6751 12.0375 11.2916 10.6404C11.2916 10.6404 12.6874 10.2029 15.875 12.3487C18.6021 11.5987 21.4811 11.5987 24.2083 12.3487C27.3958 10.182 28.7916 10.6404 28.7916 10.6404C29.4083 12.0375 29.4679 13.6174 28.9583 15.057C30.0822 16.2751 30.694 17.8791 30.6666 19.5362C30.6666 25.932 26.7708 27.3487 23.0625 27.7654C23.4602 28.1685 23.7666 28.6525 23.9607 29.1846C24.1548 29.7166 24.2321 30.2841 24.1875 30.8487C24.1875 33.0779 24.1666 34.8695 24.1666 35.432C24.1666 35.8696 24.4791 36.3904 25.3124 36.2237C29.0602 34.9618 32.2376 32.4091 34.2773 29.0212C36.3171 25.6334 37.0864 21.6309 36.4481 17.7282C35.8098 13.8256 33.8053 10.2768 30.7924 7.71535C27.7796 5.15392 23.9545 3.74656 20 3.7445Z" fill="#F8F9FA"/>
</svg>
