<svg width="40" height="40" viewBox="0 0 40 40" fill="none" xmlns="http://www.w3.org/2000/svg">
<path d="M36.7619 20.0952C36.7619 29.2994 29.2994 36.7619 20.0953 36.7619C10.8911 36.7619 3.42859 29.2994 3.42859 20.0952C3.42859 10.8911 10.8911 3.42857 20.0953 3.42857C29.2994 3.42857 36.7619 10.8911 36.7619 20.0952Z" fill="#F8F9FA"/>
<path d="M9.62751 19.7642C15.4525 17.2017 22.99 14.0775 24.0308 13.645C26.76 12.5133 27.5975 12.73 27.18 15.2367C26.88 17.0383 26.015 23.0025 25.325 26.715C24.9158 28.9167 23.9975 29.1775 22.5542 28.225C21.86 27.7667 18.3558 25.4492 17.595 24.905C16.9008 24.4092 15.9433 23.8125 17.1442 22.6375C17.5717 22.2192 20.3725 19.5442 22.555 17.4625C22.8408 17.1892 22.4817 16.74 22.1517 16.9592C19.21 18.91 15.1317 21.6175 14.6125 21.97C13.8283 22.5025 13.075 22.7467 11.7233 22.3583C10.7017 22.065 9.70417 21.715 9.31584 21.5817C7.82001 21.0683 8.17501 20.4033 9.62751 19.7642Z" fill="#212529"/>
</svg>
