<svg width="99" height="32" viewBox="0 0 99 32" fill="none" xmlns="http://www.w3.org/2000/svg">
<path d="M87 17H91.5496V27.8578H98.6489V31.4014H87V17Z" fill="#F8F9FA"/>
<path d="M45.3247 9.88525L49.6521 9.61949C49.7465 10.3078 49.9374 10.8318 50.2249 11.1915C50.6946 11.7746 51.3639 12.0662 52.233 12.0662C52.8816 12.0662 53.382 11.9174 53.7342 11.62C53.8955 11.4965 54.0265 11.3392 54.1177 11.1597C54.2088 10.9803 54.2578 10.7831 54.2609 10.5827C54.2582 10.3906 54.2127 10.2013 54.1274 10.0283C54.0421 9.8552 53.9191 9.70249 53.7671 9.58083C53.4379 9.28661 52.6615 9.00795 51.438 8.74487C49.443 8.30676 48.0203 7.72368 47.1699 6.99564C46.756 6.65643 46.4256 6.23038 46.203 5.74909C45.9805 5.26781 45.8716 4.74366 45.8843 4.21555C45.8875 3.46924 46.1166 2.74058 46.5428 2.12163C47.0294 1.42401 47.7169 0.883584 48.518 0.5689C49.3959 0.191993 50.6029 0.00354004 52.1392 0.00354004C54.0201 0.00354004 55.4543 0.346085 56.4419 1.03117C57.4295 1.71626 58.0171 2.8051 58.2048 4.2977L53.9169 4.54252C53.8072 3.89824 53.568 3.42684 53.1992 3.12832C52.8305 2.8298 52.3258 2.68108 51.6849 2.68215C51.1565 2.68215 50.7582 2.79329 50.4915 3.01235C50.3656 3.10712 50.2638 3.22916 50.1941 3.36888C50.1244 3.50861 50.0888 3.66223 50.0899 3.8177C50.0939 3.93835 50.1256 4.05658 50.1826 4.16364C50.2395 4.2707 50.3204 4.36385 50.4191 4.43622C50.6331 4.62628 51.1417 4.80346 51.945 4.96775C53.9334 5.38654 55.3599 5.81069 56.2246 6.24021C57.0893 6.66974 57.7148 7.20181 58.1011 7.83643C58.4953 8.4802 58.6987 9.21858 58.6887 9.96901C58.6934 10.8777 58.4212 11.7671 57.9068 12.5236C57.3715 13.3124 56.6099 13.9288 55.7177 14.2954C54.7794 14.6981 53.5976 14.8994 52.1721 14.8994C49.6691 14.8994 47.9353 14.428 46.9707 13.4852C46.0062 12.5424 45.4575 11.3424 45.3247 9.88525ZM1.03205 14.6578V0.246757H8.6136C10.0193 0.246757 11.0936 0.364339 11.8365 0.599503C12.5683 0.828219 13.2009 1.28971 13.634 1.91062C14.1052 2.5998 14.3452 3.41565 14.3203 4.24454C14.3394 4.96789 14.1574 5.68272 13.7936 6.3127C13.4445 6.8967 12.9502 7.38484 12.3566 7.73173C11.8576 8.00109 11.319 8.19342 10.76 8.30192C11.1783 8.42246 11.5768 8.60091 11.9435 8.83185C12.216 9.0535 12.4612 9.30539 12.6743 9.58244C12.914 9.85779 13.1263 10.155 13.308 10.4699L15.5104 14.6578H10.3699L7.94038 10.2493C7.63203 9.67908 7.35769 9.30862 7.11737 9.13788C6.7899 8.91581 6.39977 8.79925 6.00138 8.80447H5.59646V14.6578H1.03205ZM5.59646 6.08236H7.519C7.92587 6.05264 8.32915 5.98687 8.72389 5.88586C9.01886 5.83048 9.28194 5.669 9.4613 5.43325C9.65097 5.19511 9.752 4.9008 9.74771 4.5989C9.76009 4.39847 9.72577 4.19791 9.64736 4.01236C9.56894 3.82681 9.44848 3.66111 9.29505 3.52778C8.99438 3.27865 8.4287 3.15409 7.59801 3.15409H5.59646V6.08236ZM0 26.9894L4.32738 26.7252C4.42175 27.4135 4.61269 27.9376 4.90019 28.2973C5.36437 28.8804 6.03539 29.1719 6.91327 29.1719C7.5618 29.1719 8.06219 29.0226 8.41443 28.7241C8.57575 28.6006 8.70678 28.4434 8.79792 28.2639C8.88906 28.0844 8.938 27.8872 8.94116 27.6868C8.93826 27.4947 8.89258 27.3056 8.80729 27.1326C8.722 26.9595 8.59917 26.8068 8.44736 26.685C8.11815 26.3907 7.34178 26.1126 6.11824 25.8506C4.12327 25.4104 2.70056 24.8273 1.85012 24.1014C1.43633 23.7618 1.10593 23.3354 0.883402 22.8539C0.660869 22.3724 0.551905 21.848 0.564584 21.3197C0.568227 20.5735 0.797301 19.8449 1.22299 19.2258C1.70968 18.5282 2.39716 17.9877 3.19821 17.673C4.07609 17.2961 5.28316 17.1077 6.81945 17.1077C8.70029 17.1077 10.1345 17.4502 11.1221 18.1353C12.1097 18.8204 12.6974 19.9092 12.885 21.4018L8.60537 21.6483C8.49564 21.004 8.25642 20.5321 7.88771 20.2325C7.519 19.9329 7.01477 19.7858 6.37502 19.7911C5.8472 19.7911 5.44941 19.8985 5.18166 20.1133C5.05571 20.208 4.9539 20.3301 4.88422 20.4698C4.81454 20.6095 4.77888 20.7632 4.78003 20.9186C4.78378 21.0395 4.81533 21.1581 4.87232 21.2654C4.92931 21.3728 5.01029 21.4662 5.10923 21.5387C5.32322 21.7288 5.83184 21.9055 6.63509 22.0687C8.62348 22.4875 10.05 22.9116 10.9147 23.3411C11.7794 23.7707 12.4049 24.3027 12.7912 24.9373C13.1852 25.5812 13.3886 26.3195 13.3788 27.0699C13.3838 27.9786 13.1115 28.8681 12.597 29.6245C12.0616 30.4133 11.3 31.0297 10.4078 31.3963C9.46953 31.799 8.28769 32.0003 6.86224 32.0003C4.3592 32.0003 2.6254 31.5289 1.66083 30.5861C0.696265 29.6433 0.142655 28.4444 0 26.9894ZM26.8301 25.8603L30.8167 27.0393C30.5962 28.029 30.1649 28.962 29.5509 29.7775C28.9914 30.4981 28.2555 31.0692 27.4111 31.4382C26.5574 31.8108 25.471 31.9971 24.152 31.9971C22.5521 31.9971 21.2451 31.77 20.2312 31.3158C19.2172 30.8615 18.3394 30.061 17.5976 28.9142C16.8601 27.7684 16.492 26.3022 16.4931 24.5153C16.4931 22.1336 17.1405 20.3023 18.4354 19.0212C19.7302 17.7402 21.5628 17.1002 23.9331 17.1012C25.7887 17.1012 27.2465 17.4685 28.3065 18.203C29.3666 18.9375 30.1545 20.0649 30.6702 21.5855L26.6539 22.4601C26.5596 22.1173 26.4108 21.7911 26.2128 21.4936C25.9696 21.1632 25.6497 20.8938 25.2795 20.7076C24.8958 20.5206 24.472 20.4261 24.0434 20.4322C23.013 20.4322 22.2234 20.8381 21.6747 21.6499C21.2577 22.2523 21.0498 23.1978 21.0509 24.4864C21.0509 26.082 21.2989 27.1762 21.7949 27.769C22.2909 28.3617 22.9872 28.6576 23.8837 28.6565C24.7528 28.6565 25.4112 28.4176 25.8589 27.9397C26.3066 27.4619 26.6303 26.7687 26.8301 25.8603ZM34.3211 17.3509H38.869V22.3892H43.84V17.3509H48.4077V31.7555H43.84V25.9328H38.869V31.7603H34.3211V17.3509ZM51.2388 24.5621C51.2388 22.2126 51.9082 20.3817 53.247 19.0695C54.5857 17.7573 56.4512 17.1023 58.8434 17.1045C61.2927 17.1045 63.1801 17.7487 64.5057 19.0373C65.8313 20.3259 66.4958 22.1283 66.4991 24.4445C66.4991 26.1293 66.2094 27.5102 65.63 28.5872C65.0661 29.6501 64.1925 30.5252 63.1198 31.1015C62.0224 31.7007 60.6584 32.0003 59.0278 32.0003C57.3686 32.0003 55.9969 31.7415 54.9127 31.224C53.7989 30.6838 52.8771 29.8278 52.2676 28.7676C51.5807 27.6487 51.2377 26.2469 51.2388 24.5621ZM55.7868 24.583C55.7868 26.038 56.0611 27.0828 56.6098 27.7174C57.1585 28.3521 57.9101 28.6694 58.8648 28.6694C59.8426 28.6694 60.5992 28.3585 61.1347 27.7368C61.6702 27.115 61.9379 25.9983 61.9379 24.3865C61.9379 23.0303 61.6581 22.0391 61.0985 21.4131C60.5388 20.7871 59.7806 20.4746 58.8237 20.4757C58.4076 20.461 57.9936 20.5386 57.6125 20.7026C57.2314 20.8666 56.8931 21.1128 56.623 21.4228C56.0666 22.0671 55.7879 23.1205 55.7868 24.583Z" fill="#F8F9FA"/>
<path d="M69 24.4576C69 22.1081 69.6694 20.2773 71.0081 18.9651C72.3469 17.6529 74.2124 16.9979 76.6046 17C79.0561 17 80.944 17.6443 82.2685 18.9329C83.593 20.2214 84.2553 22.0244 84.2553 24.3416C84.2553 26.0264 83.9661 27.4073 83.3878 28.4844C82.8235 29.5469 81.95 30.4219 80.8777 30.9987C79.7803 31.5979 78.4163 31.8975 76.7857 31.8975C75.1254 31.8975 73.7537 31.6387 72.6706 31.1211C71.5566 30.5806 70.6344 29.7247 70.0238 28.6648C69.3413 27.5448 69 26.1424 69 24.4576ZM73.5496 24.4785C73.5496 25.9335 73.8239 26.9784 74.3726 27.613C74.9213 28.2476 75.674 28.5654 76.6309 28.5665C77.6087 28.5665 78.3653 28.2557 78.9008 27.6339C79.4363 27.0122 79.704 25.8954 79.704 24.2836C79.704 22.9274 79.4248 21.9363 78.8662 21.3103C78.3077 20.6842 77.5494 20.3718 76.5914 20.3728C76.1747 20.3571 75.7597 20.4341 75.3777 20.5978C74.9957 20.7616 74.6565 21.0079 74.3858 21.3183C73.8272 21.9626 73.5485 23.016 73.5496 24.4785Z" fill="#F8F9FA"/>
</svg>
